<svg width="187" height="24" viewBox="0 0 187 24" fill="none" xmlns="http://www.w3.org/2000/svg">
<g opacity="0.4">
<path d="M96.2714 3.18741C96.4294 3.49037 96.5126 3.82449 96.5144 4.16362V20.7591C96.5039 21.3463 96.2574 21.9066 95.8268 22.3218C95.3962 22.7371 94.8151 22.9748 94.2062 22.9848H87.3423V24.0001H95.259C95.8679 23.9901 96.449 23.7523 96.8796 23.3371C97.3103 22.9218 97.5568 22.3615 97.5672 21.7743V5.17887C97.5655 4.76338 97.4432 4.35665 97.2142 4.0047C96.9852 3.65275 96.6586 3.36964 96.2714 3.18741Z" fill="#DBB590"/>
<path d="M106.927 2.95312V22.9653H104.239V23.9855H107.979V2.95312H106.927Z" fill="#DBB590"/>
<path d="M123.57 2.95312V22.9653H120.583L120.882 23.9855H124.628V2.95312H123.57Z" fill="#DBB590"/>
<path d="M117.086 13.8036V22.9751H114.398V23.9952H118.139V17.3131L117.086 13.8036Z" fill="#DBB590"/>
<path d="M133.42 15.2679H136.513V14.2283H132.367C132.016 14.2266 131.669 14.1464 131.355 13.994C131.539 14.3734 131.83 14.6946 132.196 14.9202C132.562 15.1458 132.986 15.2664 133.42 15.2679Z" fill="#DBB590"/>
<path d="M134.853 16.6005L133.795 16.8348V19.3387H134.853V16.6005Z" fill="#DBB590"/>
<path d="M140.041 3.18741C140.199 3.49037 140.282 3.82449 140.284 4.16362V8.43451L137.566 9.03976V10.2893L141.337 9.44488V5.17399C141.334 4.75933 141.212 4.35363 140.983 4.00263C140.754 3.65163 140.428 3.36928 140.041 3.18741Z" fill="#DBB590"/>
<path d="M46.6399 3.18741C46.798 3.49036 46.8811 3.82449 46.8829 4.16361V20.7591C46.8725 21.3463 46.6259 21.9066 46.1953 22.3218C45.7647 22.7371 45.1836 22.9748 44.5747 22.9848H38.9763C38.6246 22.9832 38.2781 22.903 37.9639 22.7506C38.1525 23.1232 38.4453 23.4376 38.8093 23.6584C39.1733 23.8792 39.5941 23.9975 40.0241 24.0001H45.6326C46.2415 23.9901 46.8226 23.7523 47.2532 23.3371C47.6839 22.9218 47.9304 22.3615 47.9408 21.7743V5.17887C47.9381 4.76299 47.8148 4.35613 47.5849 4.00423C47.355 3.65233 47.0277 3.36941 46.6399 3.18741Z" fill="#DBB590"/>
<path d="M57.1078 10.6212H58.1607V6.5602H59.821V5.54006H57.1078V10.6212Z" fill="#DBB590"/>
<path d="M63.3086 15.0141C63.7005 14.8389 64.0322 14.5592 64.2645 14.2081C64.4968 13.8569 64.6201 13.449 64.6196 13.0324V5.17399C64.6199 4.7562 64.498 4.34679 64.2679 3.99279C64.0378 3.6388 63.7088 3.35458 63.3187 3.17277C63.4744 3.47654 63.5575 3.81014 63.5617 4.14897V12.0318C63.5646 12.4483 63.4436 12.8568 63.213 13.2089C62.9824 13.561 62.652 13.8419 62.2608 14.0184L63.8198 22.9751H60.9447L61.1219 23.9903H64.8626L63.3086 15.0141Z" fill="#DBB590"/>
<path d="M58.5403 14.2088H57.1078V22.9751H54.42V23.9952H58.1607V15.2679H58.7175L58.5403 14.2088Z" fill="#DBB590"/>
<path d="M73.3159 19.3192H74.3738V6.5602H76.029V5.54006H73.3159V19.3192Z" fill="#DBB590"/>
<path d="M23.6895 10.6212H24.7423V6.5602H26.3976V5.54006H23.6895V10.6212Z" fill="#DBB590"/>
<path d="M31.2266 11.3631V5.17399C31.2239 4.75933 31.1012 4.35363 30.8722 4.00262C30.6433 3.65162 30.3172 3.36927 29.9307 3.18741C30.0888 3.49036 30.172 3.82449 30.1737 4.16361V10.3528C30.179 10.6788 30.1085 11.002 29.9675 11.2984C29.8265 11.5948 29.6185 11.8571 29.3587 12.066C29.6165 12.2968 29.8237 12.5751 29.968 12.8845C30.1123 13.1939 30.1909 13.528 30.199 13.8671V20.7493C30.1897 21.3453 29.9366 21.9136 29.4948 22.3305C29.053 22.7473 28.4583 22.979 27.8402 22.9751H21.0016V23.9903H28.9184C29.5273 23.9803 30.1084 23.7426 30.539 23.3273C30.9696 22.9121 31.2162 22.3517 31.2266 21.7646V14.8823C31.2168 14.5421 31.136 14.2073 30.989 13.8978C30.842 13.5884 30.6319 13.3106 30.3711 13.0812C30.6395 12.8762 30.856 12.6149 31.0042 12.3173C31.1524 12.0196 31.2284 11.6933 31.2266 11.3631Z" fill="#DBB590"/>
<path d="M79.8052 4.16361C79.804 3.82442 79.7208 3.49018 79.5622 3.18741C79.9468 3.3719 80.2707 3.65581 80.4977 4.00745C80.7247 4.3591 80.846 4.76465 80.8479 5.17887V21.7743C80.8375 22.3615 80.591 22.9218 80.1603 23.3371C79.7297 23.7523 79.1486 23.99 78.5397 24.0001H72.9261C72.4961 23.9975 72.0754 23.8792 71.7113 23.6584C71.3473 23.4376 71.0545 23.1232 70.8659 22.7505C71.1801 22.903 71.5266 22.9831 71.8783 22.9848H77.497C78.1059 22.9748 78.6869 22.7371 79.1176 22.3218C79.5482 21.9066 79.7947 21.3463 79.8052 20.7591V4.16361Z" fill="#DBB590"/>
<path d="M91.083 19.3387H90.025V5.54006H92.7382V6.5602H91.083V19.3387Z" fill="#DBB590"/>
<path d="M140.284 12.8518C140.282 12.5127 140.199 12.1786 140.041 11.8756C140.425 12.0593 140.749 12.3424 140.976 12.6932C141.203 13.044 141.325 13.4487 141.327 13.8622V21.7743C141.317 22.3615 141.07 22.9218 140.639 23.3371C140.209 23.7523 139.628 23.9901 139.019 24.0001H133.41C132.98 23.9975 132.559 23.8792 132.195 23.6584C131.831 23.4377 131.539 23.1232 131.35 22.7506C131.664 22.903 132.011 22.9832 132.362 22.9848H137.976C138.585 22.9748 139.166 22.7371 139.597 22.3218C140.027 21.9066 140.274 21.3463 140.284 20.7591V12.8518Z" fill="#DBB590"/>
<path d="M133.795 10.6212V5.5303L136.508 5.54007V6.5602H134.853V10.6212H133.795Z" fill="#DBB590"/>
<path d="M150.499 14.2283H150.843L151.547 16.415V23.9952H147.806V22.9751H150.499V14.2283Z" fill="#DBB590"/>
<path d="M157.12 2.95312H158.517L155.024 13.4424L158.517 23.9952H154.746L154.716 23.8732L154.422 22.9751H157.459L153.966 12.4272L157.12 2.95312Z" fill="#DBB590"/>
<path d="M167.304 22.9653V2.95312H168.357V23.9855H164.622V22.9653H167.304Z" fill="#DBB590"/>
<path d="M183.052 15.224L185.947 12.4321L187 13.4522L184.11 16.2441L183.052 15.224Z" fill="#DBB590"/>
<path d="M4.87455 15.224L7.76487 12.4369L8.8228 13.4522L5.94766 16.2441L4.87455 15.224Z" fill="#DBB590"/>
<path d="M24.7423 19.3387H23.6895V14.2283H26.3976V15.2679H24.7423V19.3387Z" fill="#DBB590"/>
<path d="M41.4465 19.3387H40.3936L40.3987 5.54006H43.1017V6.5602H41.4465V19.3387Z" fill="#DBB590"/>
</g>
<path d="M2.89032 7.72179L0 10.5137L2.89032 13.3154L5.78064 10.5137L2.89032 7.72179Z" fill="#DBB590"/>
<path d="M181.068 7.72667L178.177 10.5137L181.078 13.3154L183.963 10.5137L181.068 7.72667Z" fill="#DBB590"/>
<path fill-rule="evenodd" clip-rule="evenodd" d="M27.9511 9.3749C28.0956 9.081 28.1701 8.75967 28.1692 8.43441V2.22575C28.1639 1.63702 27.919 1.07385 27.4873 0.657545C27.0556 0.241235 26.4715 0.00510322 25.861 5.36551e-06H17.9443V21.0421H25.8661C26.475 21.0321 27.0561 20.7943 27.4867 20.3791C27.9173 19.9638 28.1639 19.4035 28.1743 18.8163V11.9341C28.1661 11.595 28.0876 11.2609 27.9433 10.9515C27.7989 10.6422 27.5918 10.3638 27.334 10.133C27.5957 9.92781 27.8065 9.66879 27.9511 9.3749ZM21.685 3.60708H24.3981V8.68822H21.685V3.60708ZM21.685 12.2953H24.3981V17.4057H21.685V12.2953Z" fill="#DBB590"/>
<path fill-rule="evenodd" clip-rule="evenodd" d="M44.1965 0.657545C43.7648 0.241235 43.1807 0.00510322 42.5702 5.36551e-06H36.9515C36.6482 -0.000637489 36.3478 0.0564922 36.0674 0.168118C35.7871 0.279745 35.5324 0.443669 35.3179 0.650477C35.1034 0.857283 34.9334 1.1029 34.8177 1.37323C34.7019 1.64356 34.6427 1.93328 34.6433 2.22575V18.8212C34.6486 19.41 34.8935 19.9731 35.3252 20.3894C35.757 20.8057 36.341 21.0419 36.9515 21.047H42.5702C43.1791 21.0369 43.7602 20.7992 44.1908 20.384C44.6214 19.9687 44.868 19.4084 44.8784 18.8212V2.22575C44.8731 1.63702 44.6282 1.07385 44.1965 0.657545ZM38.3942 3.60708H41.1022L41.1073 17.4057H38.3942V3.60708Z" fill="#DBB590"/>
<path fill-rule="evenodd" clip-rule="evenodd" d="M56.546 12.2953L58.0645 21.0421H61.7951L60.2361 12.0854C60.6317 11.9131 60.9676 11.6346 61.2037 11.2832C61.4398 10.9318 61.566 10.5224 61.5673 10.1037V2.22575C61.5693 1.93538 61.512 1.64748 61.3986 1.37848C61.2852 1.10947 61.118 0.864641 60.9065 0.657961C60.6949 0.45128 60.4433 0.286797 60.1658 0.173904C59.8884 0.0610128 59.5906 0.00192081 59.2895 5.36551e-06H51.3727V21.0421H55.1134V12.2953H56.546ZM55.1033 3.60708H57.8165V8.68822H55.1033V3.60708Z" fill="#DBB590"/>
<path fill-rule="evenodd" clip-rule="evenodd" d="M77.1188 0.657545C76.687 0.241235 76.103 0.00510322 75.4925 5.36551e-06H69.8536C69.2463 0.00643954 68.6662 0.243928 68.2396 0.660779C67.813 1.07763 67.5744 1.6401 67.5757 2.22575V18.8212C67.581 19.41 67.8259 19.9731 68.2576 20.3894C68.6894 20.8057 69.2734 21.0419 69.8839 21.047H75.4925C76.1014 21.0369 76.6825 20.7992 77.1131 20.384C77.5437 19.9687 77.7903 19.4084 77.8007 18.8212V2.22575C77.7954 1.63702 77.5505 1.07385 77.1188 0.657545ZM71.3114 3.60708H74.0245V17.4057H71.3114V3.60708Z" fill="#DBB590"/>
<path fill-rule="evenodd" clip-rule="evenodd" d="M93.828 0.657545C93.3962 0.241235 92.8122 0.00510322 92.2016 5.36551e-06H84.2849V21.047H92.2016C92.8106 21.0369 93.3916 20.7992 93.8223 20.384C94.2529 19.9687 94.4994 19.4084 94.5099 18.8212V2.22575C94.5046 1.63702 94.2597 1.07385 93.828 0.657545ZM88.0256 3.60708H90.7388V17.4057H88.0256V3.60708Z" fill="#DBB590"/>
<path d="M104.922 5.36551e-06H101.181V21.0421H104.922V5.36551e-06Z" fill="#DBB590"/>
<path d="M121.571 21.0421V5.36551e-06H117.815V8.62477L115.071 5.36551e-06H111.361V21.0421H115.086V11.8511L117.83 21.0421H121.571Z" fill="#DBB590"/>
<path d="M137.598 9.34577C137.166 8.92945 136.582 8.69332 135.971 8.68822H131.806V3.60708H134.519V7.32642L138.29 6.482V2.22575C138.285 1.63702 138.04 1.07385 137.608 0.657545C137.176 0.241235 136.592 0.00510322 135.982 5.36551e-06H130.363C130.061 0.000644472 129.761 0.0587225 129.482 0.170924C129.203 0.283126 128.949 0.44725 128.736 0.653929C128.522 0.86061 128.353 1.1058 128.238 1.37549C128.123 1.64518 128.064 1.9341 128.065 2.22575V10.0793C128.066 10.371 128.126 10.6596 128.242 10.9288C128.358 11.198 128.529 11.4425 128.743 11.6483C128.957 11.8541 129.212 12.0171 129.491 12.1281C129.771 12.2391 130.071 12.2959 130.373 12.2953H134.519V17.4106H131.806V13.6522L128.065 14.4918V18.8212C128.07 19.4083 128.314 19.97 128.743 20.386C129.173 20.8021 129.754 21.0393 130.363 21.047H135.971C136.58 21.0369 137.161 20.7992 137.592 20.384C138.023 19.9687 138.269 19.4084 138.28 18.8212V10.914C138.274 10.3252 138.03 9.76207 137.598 9.34577Z" fill="#DBB590"/>
<path d="M155.46 21.047L151.967 10.4942L155.49 5.36551e-06H151.689L148.818 8.68822H148.51V5.36551e-06H144.769V21.0421H148.51V12.3002H148.854L151.658 20.9249L151.689 21.047H155.46Z" fill="#DBB590"/>
<path d="M165.325 5.36551e-06H161.584V21.0421H165.325V5.36551e-06Z" fill="#DBB590"/>
</svg>
